<svg width="64" height="64" viewBox="0 0 64 64" fill="none" xmlns="http://www.w3.org/2000/svg">
<rect width="64" height="64" rx="16" fill="black"/>
<path d="M18.6678 26.971H20.9898C20.9554 25.9562 20.7576 25.0876 20.3964 24.3652C20.0524 23.6256 19.5708 23.015 18.9516 22.5334C18.3496 22.0518 17.6444 21.6992 16.836 21.4756C16.0276 21.252 15.1504 21.1402 14.2044 21.1402C13.3616 21.1402 12.536 21.252 11.7276 21.4756C10.9364 21.682 10.2226 22.0088 9.58621 22.456C8.96701 22.886 8.4682 23.445 8.0898 24.133C7.7114 24.8038 7.5222 25.6036 7.5222 26.5324C7.5222 27.3752 7.6856 28.0804 8.0124 28.648C8.3564 29.1984 8.80361 29.6542 9.35401 30.0154C9.92161 30.3594 10.558 30.6432 11.2632 30.8668C11.9684 31.0732 12.6822 31.2624 13.4046 31.4344C14.1442 31.5892 14.8666 31.744 15.5718 31.8988C16.277 32.0536 16.9048 32.26 17.4552 32.518C18.0228 32.7588 18.47 33.077 18.7968 33.4726C19.1408 33.8682 19.3128 34.3842 19.3128 35.0206C19.3128 35.6914 19.1752 36.2418 18.9 36.6718C18.6248 37.1018 18.2636 37.4458 17.8164 37.7038C17.3692 37.9446 16.8618 38.1166 16.2942 38.2198C15.7438 38.323 15.1934 38.3746 14.643 38.3746C13.955 38.3746 13.2842 38.2886 12.6306 38.1166C11.977 37.9446 11.4008 37.678 10.902 37.3168C10.4204 36.9556 10.0248 36.4998 9.71521 35.9494C9.42281 35.3818 9.27661 34.711 9.27661 33.937H6.9546C6.9546 35.055 7.1524 36.0268 7.548 36.8524C7.9608 37.6608 8.5112 38.3316 9.19921 38.8648C9.90441 39.3808 10.7128 39.7678 11.6244 40.0258C12.5532 40.2838 13.5336 40.4128 14.5656 40.4128C15.4084 40.4128 16.2512 40.3096 17.094 40.1032C17.954 39.914 18.728 39.6044 19.416 39.1744C20.104 38.7272 20.663 38.1596 21.093 37.4716C21.5402 36.7664 21.7638 35.9236 21.7638 34.9432C21.7638 34.0316 21.5918 33.2748 21.2478 32.6728C20.921 32.0708 20.4738 31.572 19.9062 31.1764C19.3558 30.7808 18.728 30.4712 18.0228 30.2476C17.3176 30.0068 16.5952 29.8004 15.8556 29.6284C15.1332 29.4564 14.4194 29.3016 13.7142 29.164C13.009 29.0092 12.3726 28.82 11.805 28.5964C11.2546 28.3728 10.8074 28.089 10.4634 27.745C10.1366 27.3838 9.97321 26.9194 9.97321 26.3518C9.97321 25.7498 10.085 25.251 10.3086 24.8554C10.5494 24.4426 10.859 24.1158 11.2374 23.875C11.633 23.6342 12.0802 23.4622 12.579 23.359C13.0778 23.2558 13.5852 23.2042 14.1012 23.2042C15.374 23.2042 16.4146 23.5052 17.223 24.1072C18.0486 24.692 18.5302 25.6466 18.6678 26.971ZM27.1931 29.4994V23.6428H32.0951C32.6283 23.6428 33.1271 23.6772 33.5915 23.746C34.0731 23.7976 34.4945 23.9266 34.8557 24.133C35.2169 24.3394 35.5007 24.6318 35.7071 25.0102C35.9135 25.3886 36.0167 25.9046 36.0167 26.5582C36.0167 27.5386 35.7071 28.2782 35.0879 28.777C34.4859 29.2586 33.4883 29.4994 32.0951 29.4994H27.1931ZM24.7421 21.5788V40H33.6431C34.5547 40 35.3545 39.8538 36.0425 39.5614C36.7477 39.2518 37.3325 38.8562 37.7969 38.3746C38.2785 37.8758 38.6398 37.3082 38.8806 36.6718C39.1214 36.0354 39.2418 35.3818 39.2418 34.711C39.2418 33.5758 38.9408 32.6126 38.3387 31.8214C37.7367 31.0302 36.8681 30.5142 35.7329 30.2734V30.2218C36.6101 29.8778 37.2809 29.3532 37.7453 28.648C38.2269 27.9256 38.4677 27.0742 38.4677 26.0938C38.4677 25.165 38.2527 24.3824 37.8227 23.746C37.4099 23.1096 36.9025 22.6108 36.3005 22.2496C36.0253 22.0776 35.6899 21.9486 35.2943 21.8626C34.9159 21.7766 34.5031 21.7164 34.0559 21.682C33.6087 21.6304 33.1529 21.6046 32.6885 21.6046C32.2413 21.5874 31.8199 21.5788 31.4243 21.5788H24.7421ZM27.1931 37.936V31.5634H32.7917C33.3077 31.5634 33.8065 31.615 34.2881 31.7182C34.7697 31.8042 35.1911 31.9676 35.5523 32.2084C35.9307 32.432 36.2317 32.7416 36.4553 33.1372C36.6789 33.5328 36.7907 34.0316 36.7907 34.6336C36.7907 35.6656 36.4811 36.474 35.8619 37.0588C35.2599 37.6436 34.4171 37.936 33.3335 37.936H27.1931ZM53.0595 26.971H55.3815C55.3471 25.9562 55.1493 25.0876 54.7881 24.3652C54.4441 23.6256 53.9625 23.015 53.3433 22.5334C52.7413 22.0518 52.0361 21.6992 51.2277 21.4756C50.4193 21.252 49.5421 21.1402 48.5961 21.1402C47.7533 21.1402 46.9277 21.252 46.1193 21.4756C45.3281 21.682 44.6143 22.0088 43.9779 22.456C43.3587 22.886 42.8599 23.445 42.4815 24.133C42.1031 24.8038 41.9139 25.6036 41.9139 26.5324C41.9139 27.3752 42.0773 28.0804 42.4041 28.648C42.7481 29.1984 43.1953 29.6542 43.7457 30.0154C44.3133 30.3594 44.9497 30.6432 45.6549 30.8668C46.3601 31.0732 47.0739 31.2624 47.7963 31.4344C48.5359 31.5892 49.2583 31.744 49.9635 31.8988C50.6687 32.0536 51.2965 32.26 51.8469 32.518C52.4145 32.7588 52.8617 33.077 53.1885 33.4726C53.5325 33.8682 53.7045 34.3842 53.7045 35.0206C53.7045 35.6914 53.5669 36.2418 53.2917 36.6718C53.0165 37.1018 52.6553 37.4458 52.2081 37.7038C51.7609 37.9446 51.2535 38.1166 50.6859 38.2198C50.1355 38.323 49.5851 38.3746 49.0347 38.3746C48.3467 38.3746 47.6759 38.2886 47.0223 38.1166C46.3687 37.9446 45.7925 37.678 45.2937 37.3168C44.8121 36.9556 44.4165 36.4998 44.1069 35.9494C43.8145 35.3818 43.6683 34.711 43.6683 33.937H41.3463C41.3463 35.055 41.5441 36.0268 41.9397 36.8524C42.3525 37.6608 42.9029 38.3316 43.5909 38.8648C44.2961 39.3808 45.1045 39.7678 46.0161 40.0258C46.9449 40.2838 47.9253 40.4128 48.9573 40.4128C49.8001 40.4128 50.6429 40.3096 51.4857 40.1032C52.3457 39.914 53.1197 39.6044 53.8077 39.1744C54.4957 38.7272 55.0547 38.1596 55.4847 37.4716C55.9319 36.7664 56.1555 35.9236 56.1555 34.9432C56.1555 34.0316 55.9835 33.2748 55.6395 32.6728C55.3127 32.0708 54.8655 31.572 54.2979 31.1764C53.7475 30.7808 53.1197 30.4712 52.4145 30.2476C51.7093 30.0068 50.9869 29.8004 50.2473 29.6284C49.5249 29.4564 48.8111 29.3016 48.1059 29.164C47.4007 29.0092 46.7643 28.82 46.1967 28.5964C45.6463 28.3728 45.1991 28.089 44.8551 27.745C44.5283 27.3838 44.3649 26.9194 44.3649 26.3518C44.3649 25.7498 44.4767 25.251 44.7003 24.8554C44.9411 24.4426 45.2507 24.1158 45.6291 23.875C46.0247 23.6342 46.4719 23.4622 46.9707 23.359C47.4695 23.2558 47.9769 23.2042 48.4929 23.2042C49.7657 23.2042 50.8063 23.5052 51.6147 24.1072C52.4403 24.692 52.9219 25.6466 53.0595 26.971Z" fill="#FDFDFD"/>
</svg>
